<?xml version="1.0" encoding="UTF-8"?>
<svg xmlns="http://www.w3.org/2000/svg" version="1.1" width="300" height="300" viewBox="0 0 300 300"><rect x="0" y="0" width="300" height="300" fill="#ffffff"/><g transform="scale(14.286)"><g transform="translate(0,0)"><path fill-rule="evenodd" d="M8 0L8 4L9 4L9 5L8 5L8 7L9 7L9 5L10 5L10 7L11 7L11 5L12 5L12 7L13 7L13 2L12 2L12 1L13 1L13 0L12 0L12 1L11 1L11 2L10 2L10 1L9 1L9 0ZM9 3L9 4L10 4L10 3ZM11 3L11 4L12 4L12 3ZM0 8L0 10L2 10L2 11L1 11L1 12L0 12L0 13L8 13L8 14L9 14L9 15L8 15L8 17L10 17L10 18L9 18L9 19L8 19L8 21L9 21L9 19L10 19L10 21L11 21L11 19L12 19L12 21L14 21L14 20L15 20L15 19L17 19L17 20L18 20L18 21L21 21L21 19L20 19L20 20L18 20L18 19L17 19L17 18L18 18L18 17L19 17L19 18L21 18L21 17L20 17L20 16L16 16L16 15L19 15L19 14L20 14L20 12L21 12L21 11L18 11L18 10L16 10L16 8L15 8L15 16L16 16L16 17L15 17L15 19L14 19L14 20L13 20L13 16L14 16L14 15L13 15L13 16L12 16L12 14L14 14L14 12L13 12L13 10L14 10L14 9L13 9L13 8L12 8L12 11L11 11L11 12L10 12L10 13L8 13L8 12L9 12L9 11L8 11L8 12L6 12L6 11L7 11L7 10L6 10L6 9L7 9L7 8L4 8L4 9L5 9L5 10L2 10L2 8ZM17 8L17 9L19 9L19 10L21 10L21 8ZM8 9L8 10L9 10L9 9ZM10 9L10 10L11 10L11 9ZM5 10L5 11L6 11L6 10ZM16 11L16 12L18 12L18 11ZM12 12L12 13L11 13L11 14L12 14L12 13L13 13L13 12ZM16 13L16 14L17 14L17 13ZM9 15L9 16L10 16L10 15ZM11 16L11 18L10 18L10 19L11 19L11 18L12 18L12 16ZM16 17L16 18L17 18L17 17ZM0 0L0 7L7 7L7 0ZM1 1L1 6L6 6L6 1ZM2 2L2 5L5 5L5 2ZM14 0L14 7L21 7L21 0ZM15 1L15 6L20 6L20 1ZM16 2L16 5L19 5L19 2ZM0 14L0 21L7 21L7 14ZM1 15L1 20L6 20L6 15ZM2 16L2 19L5 19L5 16Z" fill="#000000"/></g></g></svg>
