<?xml version="1.0" encoding="UTF-8"?>
<svg xmlns="http://www.w3.org/2000/svg" version="1.1" width="300" height="300" viewBox="0 0 300 300"><rect x="0" y="0" width="300" height="300" fill="#ffffff"/><g transform="scale(14.286)"><g transform="translate(0,0)"><path fill-rule="evenodd" d="M8 0L8 2L9 2L9 4L8 4L8 9L7 9L7 8L5 8L5 9L4 9L4 10L2 10L2 12L3 12L3 13L5 13L5 12L6 12L6 13L7 13L7 12L8 12L8 14L9 14L9 15L8 15L8 16L9 16L9 17L10 17L10 18L8 18L8 21L9 21L9 20L10 20L10 21L12 21L12 19L13 19L13 18L14 18L14 19L15 19L15 18L16 18L16 20L15 20L15 21L16 21L16 20L17 20L17 21L21 21L21 18L19 18L19 17L20 17L20 16L18 16L18 13L20 13L20 14L19 14L19 15L21 15L21 13L20 13L20 12L21 12L21 10L19 10L19 9L21 9L21 8L19 8L19 9L18 9L18 10L16 10L16 9L17 9L17 8L12 8L12 7L13 7L13 6L12 6L12 7L11 7L11 5L10 5L10 7L9 7L9 4L10 4L10 3L11 3L11 4L12 4L12 5L13 5L13 3L12 3L12 2L13 2L13 0ZM10 1L10 2L11 2L11 1ZM0 8L0 9L3 9L3 8ZM5 9L5 10L4 10L4 11L6 11L6 12L7 12L7 11L8 11L8 12L9 12L9 13L11 13L11 14L10 14L10 15L9 15L9 16L10 16L10 17L11 17L11 18L10 18L10 20L11 20L11 18L13 18L13 17L14 17L14 18L15 18L15 17L14 17L14 16L13 16L13 15L11 15L11 14L14 14L14 15L15 15L15 16L17 16L17 17L16 17L16 18L17 18L17 20L20 20L20 19L18 19L18 18L17 18L17 17L18 17L18 16L17 16L17 15L15 15L15 13L16 13L16 12L17 12L17 13L18 13L18 12L17 12L17 11L16 11L16 12L15 12L15 9L14 9L14 10L13 10L13 9L11 9L11 11L8 11L8 10L7 10L7 9ZM9 9L9 10L10 10L10 9ZM6 10L6 11L7 11L7 10ZM0 11L0 12L1 12L1 11ZM12 11L12 12L13 12L13 13L15 13L15 12L14 12L14 11ZM11 16L11 17L13 17L13 16ZM13 20L13 21L14 21L14 20ZM0 0L0 7L7 7L7 0ZM1 1L1 6L6 6L6 1ZM2 2L2 5L5 5L5 2ZM14 0L14 7L21 7L21 0ZM15 1L15 6L20 6L20 1ZM16 2L16 5L19 5L19 2ZM0 14L0 21L7 21L7 14ZM1 15L1 20L6 20L6 15ZM2 16L2 19L5 19L5 16Z" fill="#000000"/></g></g></svg>
