<?xml version="1.0" encoding="UTF-8"?>
<svg xmlns="http://www.w3.org/2000/svg" version="1.1" width="300" height="300" viewBox="0 0 300 300"><rect x="0" y="0" width="300" height="300" fill="#ffffff"/><g transform="scale(14.286)"><g transform="translate(0,0)"><path fill-rule="evenodd" d="M10 0L10 1L11 1L11 0ZM12 0L12 2L13 2L13 0ZM8 2L8 3L9 3L9 2ZM10 2L10 3L11 3L11 2ZM12 3L12 4L11 4L11 5L10 5L10 4L9 4L9 6L8 6L8 8L4 8L4 9L3 9L3 8L0 8L0 9L3 9L3 10L4 10L4 9L7 9L7 10L6 10L6 11L4 11L4 12L2 12L2 10L1 10L1 11L0 11L0 12L2 12L2 13L8 13L8 17L9 17L9 13L10 13L10 12L11 12L11 14L12 14L12 15L11 15L11 16L12 16L12 17L10 17L10 19L11 19L11 21L12 21L12 20L14 20L14 21L15 21L15 20L18 20L18 21L19 21L19 20L20 20L20 21L21 21L21 18L20 18L20 17L19 17L19 16L20 16L20 15L21 15L21 13L19 13L19 10L20 10L20 12L21 12L21 10L20 10L20 9L19 9L19 8L18 8L18 9L16 9L16 11L17 11L17 10L18 10L18 12L17 12L17 13L16 13L16 12L15 12L15 13L16 13L16 14L15 14L15 15L14 15L14 14L12 14L12 12L13 12L13 11L15 11L15 8L12 8L12 9L11 9L11 6L12 6L12 7L13 7L13 6L12 6L12 5L13 5L13 3ZM9 6L9 12L8 12L8 13L9 13L9 12L10 12L10 10L11 10L11 9L10 9L10 6ZM12 9L12 11L13 11L13 9ZM6 11L6 12L7 12L7 11ZM17 13L17 16L19 16L19 15L20 15L20 14L19 14L19 13ZM12 15L12 16L14 16L14 18L18 18L18 17L16 17L16 16L14 16L14 15ZM12 17L12 18L11 18L11 19L12 19L12 18L13 18L13 17ZM8 18L8 21L9 21L9 18ZM19 18L19 19L18 19L18 20L19 20L19 19L20 19L20 18ZM14 19L14 20L15 20L15 19ZM0 0L0 7L7 7L7 0ZM1 1L1 6L6 6L6 1ZM2 2L2 5L5 5L5 2ZM14 0L14 7L21 7L21 0ZM15 1L15 6L20 6L20 1ZM16 2L16 5L19 5L19 2ZM0 14L0 21L7 21L7 14ZM1 15L1 20L6 20L6 15ZM2 16L2 19L5 19L5 16Z" fill="#000000"/></g></g></svg>
