<?xml version="1.0" encoding="UTF-8"?>
<svg xmlns="http://www.w3.org/2000/svg" version="1.1" width="300" height="300" viewBox="0 0 300 300"><rect x="0" y="0" width="300" height="300" fill="#ffffff"/><g transform="scale(14.286)"><g transform="translate(0,0)"><path fill-rule="evenodd" d="M8 0L8 2L9 2L9 4L8 4L8 9L9 9L9 10L8 10L8 11L10 11L10 9L16 9L16 10L15 10L15 12L13 12L13 11L12 11L12 12L13 12L13 13L15 13L15 12L18 12L18 13L17 13L17 16L18 16L18 17L17 17L17 18L16 18L16 20L15 20L15 18L14 18L14 17L13 17L13 16L15 16L15 17L16 17L16 15L14 15L14 14L11 14L11 12L8 12L8 14L9 14L9 15L8 15L8 16L9 16L9 18L8 18L8 21L12 21L12 20L13 20L13 19L14 19L14 20L15 20L15 21L16 21L16 20L17 20L17 21L21 21L21 18L19 18L19 17L20 17L20 16L18 16L18 13L20 13L20 14L19 14L19 15L21 15L21 13L20 13L20 12L21 12L21 10L19 10L19 9L21 9L21 8L19 8L19 9L18 9L18 10L17 10L17 8L12 8L12 7L13 7L13 6L12 6L12 7L11 7L11 5L10 5L10 7L9 7L9 4L10 4L10 3L11 3L11 4L12 4L12 5L13 5L13 3L12 3L12 2L13 2L13 0ZM10 1L10 2L11 2L11 1ZM0 8L0 9L2 9L2 10L1 10L1 11L0 11L0 13L1 13L1 11L3 11L3 8ZM5 8L5 9L4 9L4 11L5 11L5 12L6 12L6 13L7 13L7 12L6 12L6 11L7 11L7 10L6 10L6 9L7 9L7 8ZM5 10L5 11L6 11L6 10ZM2 12L2 13L4 13L4 12ZM10 14L10 15L9 15L9 16L10 16L10 15L11 15L11 16L13 16L13 15L11 15L11 14ZM11 17L11 18L12 18L12 19L13 19L13 17ZM9 18L9 20L10 20L10 18ZM17 18L17 20L20 20L20 19L18 19L18 18ZM0 0L0 7L7 7L7 0ZM1 1L1 6L6 6L6 1ZM2 2L2 5L5 5L5 2ZM14 0L14 7L21 7L21 0ZM15 1L15 6L20 6L20 1ZM16 2L16 5L19 5L19 2ZM0 14L0 21L7 21L7 14ZM1 15L1 20L6 20L6 15ZM2 16L2 19L5 19L5 16Z" fill="#000000"/></g></g></svg>
