<?xml version="1.0" encoding="UTF-8"?>
<svg xmlns="http://www.w3.org/2000/svg" version="1.1" width="300" height="300" viewBox="0 0 300 300"><rect x="0" y="0" width="300" height="300" fill="#ffffff"/><g transform="scale(14.286)"><g transform="translate(0,0)"><path fill-rule="evenodd" d="M8 0L8 2L9 2L9 4L8 4L8 9L9 9L9 12L8 12L8 10L6 10L6 9L7 9L7 8L5 8L5 10L4 10L4 9L3 9L3 8L0 8L0 12L2 12L2 13L3 13L3 12L2 12L2 11L5 11L5 10L6 10L6 11L7 11L7 12L6 12L6 13L7 13L7 12L8 12L8 14L11 14L11 15L13 15L13 14L11 14L11 9L13 9L13 11L12 11L12 12L13 12L13 13L15 13L15 16L10 16L10 15L8 15L8 16L9 16L9 18L8 18L8 21L9 21L9 20L10 20L10 21L15 21L15 20L12 20L12 18L11 18L11 20L10 20L10 19L9 19L9 18L10 18L10 17L13 17L13 19L15 19L15 18L16 18L16 20L17 20L17 21L21 21L21 18L19 18L19 17L20 17L20 16L18 16L18 13L20 13L20 14L19 14L19 15L21 15L21 13L20 13L20 12L21 12L21 10L19 10L19 9L21 9L21 8L19 8L19 9L18 9L18 10L16 10L16 11L17 11L17 12L18 12L18 13L17 13L17 16L16 16L16 13L15 13L15 10L14 10L14 9L17 9L17 8L12 8L12 7L13 7L13 6L12 6L12 7L11 7L11 5L10 5L10 7L9 7L9 4L10 4L10 3L11 3L11 4L12 4L12 5L13 5L13 3L12 3L12 2L13 2L13 0ZM10 1L10 2L11 2L11 1ZM2 9L2 10L1 10L1 11L2 11L2 10L3 10L3 9ZM4 12L4 13L5 13L5 12ZM17 16L17 17L16 17L16 18L17 18L17 20L20 20L20 19L18 19L18 18L17 18L17 17L18 17L18 16ZM14 17L14 18L15 18L15 17ZM0 0L0 7L7 7L7 0ZM1 1L1 6L6 6L6 1ZM2 2L2 5L5 5L5 2ZM14 0L14 7L21 7L21 0ZM15 1L15 6L20 6L20 1ZM16 2L16 5L19 5L19 2ZM0 14L0 21L7 21L7 14ZM1 15L1 20L6 20L6 15ZM2 16L2 19L5 19L5 16Z" fill="#000000"/></g></g></svg>
