<?xml version="1.0" encoding="UTF-8"?>
<svg xmlns="http://www.w3.org/2000/svg" version="1.1" width="300" height="300" viewBox="0 0 300 300"><rect x="0" y="0" width="300" height="300" fill="#ffffff"/><g transform="scale(14.286)"><g transform="translate(0,0)"><path fill-rule="evenodd" d="M10 0L10 1L11 1L11 0ZM12 0L12 2L13 2L13 0ZM8 2L8 3L9 3L9 2ZM10 2L10 3L11 3L11 2ZM12 3L12 4L11 4L11 5L10 5L10 4L9 4L9 6L8 6L8 8L4 8L4 10L3 10L3 11L2 11L2 10L0 10L0 12L1 12L1 13L3 13L3 12L4 12L4 13L5 13L5 12L6 12L6 13L7 13L7 12L8 12L8 11L9 11L9 10L5 10L5 9L9 9L9 6L10 6L10 9L11 9L11 11L10 11L10 13L11 13L11 14L12 14L12 15L11 15L11 16L12 16L12 17L10 17L10 15L9 15L9 13L8 13L8 17L10 17L10 19L11 19L11 18L12 18L12 17L13 17L13 18L14 18L14 19L15 19L15 17L14 17L14 15L16 15L16 11L17 11L17 10L18 10L18 12L17 12L17 13L19 13L19 14L20 14L20 15L19 15L19 16L17 16L17 17L18 17L18 18L16 18L16 21L17 21L17 20L18 20L18 21L19 21L19 20L20 20L20 21L21 21L21 18L20 18L20 17L19 17L19 16L20 16L20 15L21 15L21 13L19 13L19 10L20 10L20 12L21 12L21 10L20 10L20 9L19 9L19 8L18 8L18 9L17 9L17 10L16 10L16 9L15 9L15 8L12 8L12 9L11 9L11 6L12 6L12 7L13 7L13 6L12 6L12 5L13 5L13 3ZM0 8L0 9L3 9L3 8ZM12 9L12 11L13 11L13 9ZM14 9L14 10L15 10L15 11L16 11L16 10L15 10L15 9ZM4 10L4 12L5 12L5 10ZM1 11L1 12L2 12L2 11ZM6 11L6 12L7 12L7 11ZM12 12L12 14L13 14L13 15L12 15L12 16L13 16L13 15L14 15L14 14L15 14L15 13L14 13L14 12ZM8 18L8 21L10 21L10 20L9 20L9 18ZM19 18L19 19L18 19L18 20L19 20L19 19L20 19L20 18ZM12 19L12 20L11 20L11 21L13 21L13 19ZM14 20L14 21L15 21L15 20ZM0 0L0 7L7 7L7 0ZM1 1L1 6L6 6L6 1ZM2 2L2 5L5 5L5 2ZM14 0L14 7L21 7L21 0ZM15 1L15 6L20 6L20 1ZM16 2L16 5L19 5L19 2ZM0 14L0 21L7 21L7 14ZM1 15L1 20L6 20L6 15ZM2 16L2 19L5 19L5 16Z" fill="#000000"/></g></g></svg>
